<svg width="449" height="401" viewBox="0 0 449 401" fill="none" xmlns="http://www.w3.org/2000/svg">
<path d="M116.09 30.3688C116.924 30.2021 118.79 29.2688 119.59 26.8688C120.59 23.8688 119.09 15.3688 125.09 16.3688C131.09 17.3688 128.09 26.8688 135.09 22.3688C142.09 17.8688 141.09 9.36866 146.59 4.36866C152.09 -0.63134 165.543 0.415948 161.59 4.3688C153.09 12.8688 159.09 14.3688 164.09 16.3688C169.09 18.3688 169.59 24.3688 164.09 22.3688C158.59 20.3688 147.59 21.3688 149.09 25.8688C150.59 30.3688 154.59 31.8687 149.09 37.8688C147.12 40.0179 139.59 34.8688 138.59 37.8688C137.59 40.8688 139.09 39.3688 135.09 40.8688C131.89 42.0688 130.09 44.0354 129.59 44.8688" stroke="black"/>
<path d="M0 400.511L0 379.642H6.4284L6.4284 322.382H0L0 301.514H54.2557V322.382H42.4274L42.4274 379.642H53.9985V367.936H79.5835V400.511H0Z" fill="black"/>
<path d="M83.996 400.511V379.642H90.4244L90.4244 322.382H83.996V301.514H170.779V339.942H141.98V322.382H126.423V342.487H137.737V356.993H126.423V379.642H141.98V359.538H170.779L170.779 400.511H83.996Z" fill="black"/>
<path d="M229.649 301.514H272.591V322.382H267.448L244.435 400.511L202.779 400.511L179.765 322.382H174.622V301.514L223.992 301.514V322.382H217.307L226.178 365.009H227.464L236.335 322.382H229.649V301.514Z" fill="black"/>
<path d="M276.722 400.511V379.642H283.151V322.382H276.722V301.514H363.506V339.942H334.707V322.382H319.15V342.487H330.464V356.993H319.15V379.642H334.707V359.538H363.506V400.511H276.722Z" fill="black"/>
<path d="M368.377 400.511V379.642H374.806V322.382H368.377V301.514H422.633V322.382H410.805V379.642H422.376V367.936H447.961V400.511H368.377Z" fill="black"/>
<path d="M448.091 212.887C448.091 231.097 444.107 245.189 436.14 255.164C428.173 265.023 415.241 269.953 397.344 269.953L339.324 269.953L339.324 278.652L310.92 278.652L310.92 214.279L339.324 214.279L339.324 221.238L406.177 221.238C409.988 221.238 412.816 220.426 414.664 218.802C416.396 217.063 417.262 214.511 417.262 211.147C417.262 207.784 416.396 205.29 414.664 203.666C412.816 201.926 409.988 201.056 406.177 201.056L339.324 201.056L339.324 208.016L310.92 208.016L310.92 148.34L339.324 148.34L339.324 157.039L397.344 157.039C415.241 157.039 428.173 161.853 436.14 171.48C444.107 181.107 448.091 194.909 448.091 212.887Z" fill="#FF9900"/>
<path d="M417.262 142.034L417.262 133.335L339.324 133.335L339.324 142.034L310.92 142.034L310.92 65.6563C310.92 50.694 314.153 39.2693 320.619 31.3822C326.969 23.4951 337.303 19.5515 351.621 19.5515C365.938 19.5515 376.33 23.4951 382.796 31.3822C389.146 39.2693 392.322 50.694 392.322 65.6563L392.322 84.6201L417.262 84.6201L417.262 67.918L445.666 67.918L445.666 142.034L417.262 142.034ZM367.728 78.7048C367.728 71.9776 364.033 68.614 356.643 68.614L350.408 68.614C346.598 68.614 343.827 69.4839 342.095 71.2237C340.248 72.8475 339.324 75.3412 339.324 78.7048L339.324 84.6201L367.728 84.6201L367.728 78.7048Z" fill="#FF9900"/>
<path fill-rule="evenodd" clip-rule="evenodd" d="M211.198 275.394C279.011 276.48 334.865 222.387 335.952 154.574C337.038 86.7608 282.945 30.9067 215.131 29.8205C147.318 28.7343 91.4641 82.8273 90.3779 150.641C89.2917 218.454 143.385 274.308 211.198 275.394ZM215.975 37.5716C248.576 58.2188 300.504 110.623 295.94 178.416C294.826 179.086 293.68 179.772 292.501 180.471C286.421 183.681 280.192 186.269 273.863 188.301C273.675 179.577 270.06 172.024 261.287 166.916C248.152 159.269 238.086 155.779 227.435 152.086C206.232 144.735 182.71 136.58 128.044 93.2186C142.897 111.831 185.699 152.553 238.083 166.545C255.369 171.161 263.518 179.963 265.876 190.565C203.046 206.071 132.639 170.868 102.018 148.408C103.303 149.411 104.595 150.425 105.899 151.448L105.899 151.448L105.899 151.448L105.899 151.448L105.9 151.449C130.27 170.568 158.533 192.741 215.773 201.002C234.336 203.681 251.489 201.66 266.623 197.108C266.952 217.659 250.108 242.646 236.628 257.426C250.546 242.704 270.203 216.417 273.418 194.852C281.417 191.942 288.772 188.364 295.383 184.481C293.758 198.476 289.694 213.09 282.551 228.184C291.542 212.169 296.776 196.795 299.111 182.211C305.589 178.124 311.265 173.791 316.027 169.602C316.949 173.626 318.47 178.537 320.968 184.314C321.032 180.298 320.501 176.273 319.911 171.805L319.911 171.805C319.693 170.154 319.467 168.443 319.261 166.65C323.81 162.336 327.319 158.285 329.658 154.956C328.705 156.13 325.487 158.969 318.94 163.597C318.077 154.398 318.021 142.967 321.889 126.788C319.343 134.806 314.715 152.092 314.634 157.134C314.611 158.579 314.563 161.583 315.327 166.1C311.239 168.879 306.162 172.168 299.939 175.986C308.302 97.0433 232.707 42.6433 215.975 37.5716ZM286.585 167.416C287.269 167.416 287.823 166.862 287.823 166.179C287.823 165.495 287.269 164.941 286.585 164.941C285.902 164.941 285.348 165.495 285.348 166.179C285.348 166.862 285.902 167.416 286.585 167.416ZM260.599 185.979C260.599 186.662 260.045 187.216 259.362 187.216C258.678 187.216 258.124 186.662 258.124 185.979C258.124 185.295 258.678 184.741 259.362 184.741C260.045 184.741 260.599 185.295 260.599 185.979ZM281.635 172.366C282.319 172.366 282.873 171.812 282.873 171.129C282.873 170.445 282.319 169.891 281.635 169.891C280.952 169.891 280.398 170.445 280.398 171.129C280.398 171.812 280.952 172.366 281.635 172.366ZM280.399 163.704C280.399 164.387 279.845 164.941 279.161 164.941C278.478 164.941 277.924 164.387 277.924 163.704C277.924 163.021 278.478 162.467 279.161 162.467C279.845 162.467 280.399 163.021 280.399 163.704ZM251.937 184.741C252.62 184.741 253.174 184.187 253.174 183.504C253.174 182.82 252.62 182.266 251.937 182.266C251.253 182.266 250.699 182.82 250.699 183.504C250.699 184.187 251.253 184.741 251.937 184.741ZM255.649 181.029C255.649 181.712 255.095 182.266 254.411 182.266C253.728 182.266 253.174 181.712 253.174 181.029C253.174 180.345 253.728 179.791 254.411 179.791C255.095 179.791 255.649 180.345 255.649 181.029ZM256.886 179.791C257.569 179.791 258.123 179.237 258.123 178.554C258.123 177.87 257.569 177.316 256.886 177.316C256.202 177.316 255.648 177.87 255.648 178.554C255.648 179.237 256.202 179.791 256.886 179.791ZM253.174 178.554C253.174 179.237 252.62 179.791 251.937 179.791C251.253 179.791 250.699 179.237 250.699 178.554C250.699 177.87 251.253 177.316 251.937 177.316C252.62 177.316 253.174 177.87 253.174 178.554ZM274.21 169.891C274.894 169.891 275.448 169.337 275.448 168.654C275.448 167.97 274.894 167.416 274.21 167.416C273.527 167.416 272.973 167.97 272.973 168.654C272.973 169.337 273.527 169.891 274.21 169.891ZM285.349 158.754C285.349 159.438 284.795 159.992 284.111 159.992C283.428 159.992 282.874 159.438 282.874 158.754C282.874 158.071 283.428 157.517 284.111 157.517C284.795 157.517 285.349 158.071 285.349 158.754ZM237.087 150.092C237.77 150.092 238.324 149.538 238.324 148.855C238.324 148.171 237.77 147.617 237.087 147.617C236.404 147.617 235.85 148.171 235.85 148.855C235.85 149.538 236.404 150.092 237.087 150.092ZM290.297 173.604C290.297 174.287 289.743 174.841 289.06 174.841C288.376 174.841 287.822 174.287 287.822 173.604C287.822 172.921 288.376 172.366 289.06 172.366C289.743 172.366 290.297 172.921 290.297 173.604ZM289.06 169.891C289.743 169.891 290.297 169.337 290.297 168.654C290.297 167.97 289.743 167.416 289.06 167.416C288.376 167.416 287.822 167.97 287.822 168.654C287.822 169.337 288.376 169.891 289.06 169.891ZM285.349 173.604C285.349 174.287 284.795 174.841 284.111 174.841C283.428 174.841 282.874 174.287 282.874 173.604C282.874 172.921 283.428 172.366 284.111 172.366C284.795 172.366 285.349 172.921 285.349 173.604ZM286.585 177.316C287.269 177.316 287.823 176.762 287.823 176.079C287.823 175.395 287.269 174.841 286.585 174.841C285.902 174.841 285.348 175.395 285.348 176.079C285.348 176.762 285.902 177.316 286.585 177.316ZM290.297 178.554C290.297 179.237 289.743 179.791 289.06 179.791C288.376 179.791 287.822 179.237 287.822 178.554C287.822 177.87 288.376 177.316 289.06 177.316C289.743 177.316 290.297 177.87 290.297 178.554ZM286.585 194.641C287.269 194.641 287.823 194.087 287.823 193.403C287.823 192.72 287.269 192.166 286.585 192.166C285.902 192.166 285.348 192.72 285.348 193.403C285.348 194.087 285.902 194.641 286.585 194.641ZM285.349 205.778C285.349 206.461 284.795 207.015 284.111 207.015C283.428 207.015 282.874 206.461 282.874 205.778C282.874 205.094 283.428 204.54 284.111 204.54C284.795 204.54 285.349 205.094 285.349 205.778ZM289.06 197.116C289.743 197.116 290.297 196.562 290.297 195.878C290.297 195.195 289.743 194.641 289.06 194.641C288.376 194.641 287.822 195.195 287.822 195.878C287.822 196.562 288.376 197.116 289.06 197.116ZM287.823 208.253C287.823 208.936 287.269 209.49 286.585 209.49C285.902 209.49 285.348 208.936 285.348 208.253C285.348 207.569 285.902 207.015 286.585 207.015C287.269 207.015 287.823 207.569 287.823 208.253ZM286.585 199.59C287.269 199.59 287.823 199.036 287.823 198.353C287.823 197.67 287.269 197.116 286.585 197.116C285.902 197.116 285.348 197.67 285.348 198.353C285.348 199.036 285.902 199.59 286.585 199.59ZM285.349 210.728C285.349 211.411 284.795 211.965 284.111 211.965C283.428 211.965 282.874 211.411 282.874 210.728C282.874 210.044 283.428 209.49 284.111 209.49C284.795 209.49 285.349 210.044 285.349 210.728ZM284.111 202.065C284.795 202.065 285.349 201.511 285.349 200.828C285.349 200.144 284.795 199.59 284.111 199.59C283.428 199.59 282.874 200.144 282.874 200.828C282.874 201.511 283.428 202.065 284.111 202.065ZM282.873 213.202C282.873 213.886 282.319 214.44 281.635 214.44C280.952 214.44 280.398 213.886 280.398 213.202C280.398 212.519 280.952 211.965 281.635 211.965C282.319 211.965 282.873 212.519 282.873 213.202ZM279.161 219.39C279.845 219.39 280.399 218.836 280.399 218.152C280.399 217.469 279.845 216.915 279.161 216.915C278.478 216.915 277.924 217.469 277.924 218.152C277.924 218.836 278.478 219.39 279.161 219.39ZM282.873 203.303C282.873 203.986 282.319 204.54 281.635 204.54C280.952 204.54 280.398 203.986 280.398 203.303C280.398 202.619 280.952 202.065 281.635 202.065C282.319 202.065 282.873 202.619 282.873 203.303ZM286.585 204.54C287.269 204.54 287.823 203.986 287.823 203.303C287.823 202.619 287.269 202.065 286.585 202.065C285.902 202.065 285.348 202.619 285.348 203.303C285.348 203.986 285.902 204.54 286.585 204.54ZM285.349 215.678C285.349 216.361 284.795 216.915 284.111 216.915C283.428 216.915 282.874 216.361 282.874 215.678C282.874 214.994 283.428 214.44 284.111 214.44C284.795 214.44 285.349 214.994 285.349 215.678ZM281.635 221.865C282.319 221.865 282.873 221.311 282.873 220.627C282.873 219.944 282.319 219.39 281.635 219.39C280.952 219.39 280.398 219.944 280.398 220.627C280.398 221.311 280.952 221.865 281.635 221.865ZM282.873 198.353C282.873 199.036 282.319 199.59 281.635 199.59C280.952 199.59 280.398 199.036 280.398 198.353C280.398 197.67 280.952 197.116 281.635 197.116C282.319 197.116 282.873 197.67 282.873 198.353ZM279.161 211.965C279.845 211.965 280.399 211.411 280.399 210.728C280.399 210.044 279.845 209.49 279.161 209.49C278.478 209.49 277.924 210.044 277.924 210.728C277.924 211.411 278.478 211.965 279.161 211.965ZM292.773 190.928C292.773 191.611 292.219 192.165 291.535 192.165C290.852 192.165 290.298 191.611 290.298 190.928C290.298 190.244 290.852 189.69 291.535 189.69C292.219 189.69 292.773 190.244 292.773 190.928ZM303.91 184.741C304.593 184.741 305.147 184.187 305.147 183.504C305.147 182.82 304.593 182.266 303.91 182.266C303.226 182.266 302.672 182.82 302.672 183.504C302.672 184.187 303.226 184.741 303.91 184.741ZM302.672 190.928C302.672 191.611 302.118 192.165 301.435 192.165C300.751 192.165 300.197 191.611 300.197 190.928C300.197 190.244 300.751 189.69 301.435 189.69C302.118 189.69 302.672 190.244 302.672 190.928ZM303.91 189.691C304.593 189.691 305.147 189.137 305.147 188.453C305.147 187.77 304.593 187.216 303.91 187.216C303.226 187.216 302.672 187.77 302.672 188.453C302.672 189.137 303.226 189.691 303.91 189.691ZM302.672 195.878C302.672 196.562 302.118 197.116 301.435 197.116C300.751 197.116 300.197 196.562 300.197 195.878C300.197 195.195 300.751 194.641 301.435 194.641C302.118 194.641 302.672 195.195 302.672 195.878ZM298.96 204.54C299.644 204.54 300.198 203.986 300.198 203.303C300.198 202.619 299.644 202.065 298.96 202.065C298.277 202.065 297.723 202.619 297.723 203.303C297.723 203.986 298.277 204.54 298.96 204.54ZM302.672 185.979C302.672 186.662 302.118 187.216 301.435 187.216C300.751 187.216 300.197 186.662 300.197 185.979C300.197 185.295 300.751 184.741 301.435 184.741C302.118 184.741 302.672 185.295 302.672 185.979ZM298.96 194.641C299.644 194.641 300.198 194.087 300.198 193.403C300.198 192.72 299.644 192.166 298.96 192.166C298.277 192.166 297.723 192.72 297.723 193.403C297.723 194.087 298.277 194.641 298.96 194.641ZM307.621 185.979C307.621 186.662 307.067 187.216 306.384 187.216C305.7 187.216 305.146 186.662 305.146 185.979C305.146 185.295 305.7 184.741 306.384 184.741C307.067 184.741 307.621 185.295 307.621 185.979ZM303.91 194.641C304.593 194.641 305.147 194.087 305.147 193.403C305.147 192.72 304.593 192.166 303.91 192.166C303.226 192.166 302.672 192.72 302.672 193.403C302.672 194.087 303.226 194.641 303.91 194.641ZM302.672 200.828C302.672 201.511 302.118 202.065 301.435 202.065C300.751 202.065 300.197 201.511 300.197 200.828C300.197 200.144 300.751 199.59 301.435 199.59C302.118 199.59 302.672 200.144 302.672 200.828ZM308.86 184.741C309.543 184.741 310.097 184.187 310.097 183.504C310.097 182.82 309.543 182.266 308.86 182.266C308.176 182.266 307.622 182.82 307.622 183.504C307.622 184.187 308.176 184.741 308.86 184.741ZM307.621 181.029C307.621 181.712 307.067 182.266 306.384 182.266C305.7 182.266 305.146 181.712 305.146 181.029C305.146 180.345 305.7 179.791 306.384 179.791C307.067 179.791 307.621 180.345 307.621 181.029ZM311.335 187.216C312.019 187.216 312.573 186.662 312.573 185.979C312.573 185.295 312.019 184.741 311.335 184.741C310.652 184.741 310.098 185.295 310.098 185.979C310.098 186.662 310.652 187.216 311.335 187.216ZM310.097 188.453C310.097 189.137 309.543 189.691 308.86 189.691C308.176 189.691 307.622 189.137 307.622 188.453C307.622 187.77 308.176 187.216 308.86 187.216C309.543 187.216 310.097 187.77 310.097 188.453ZM308.86 194.641C309.543 194.641 310.097 194.087 310.097 193.403C310.097 192.72 309.543 192.166 308.86 192.166C308.176 192.166 307.622 192.72 307.622 193.403C307.622 194.087 308.176 194.641 308.86 194.641ZM300.198 198.353C300.198 199.036 299.644 199.59 298.96 199.59C298.277 199.59 297.723 199.036 297.723 198.353C297.723 197.67 298.277 197.116 298.96 197.116C299.644 197.116 300.198 197.67 300.198 198.353ZM311.335 182.266C312.019 182.266 312.573 181.712 312.573 181.029C312.573 180.345 312.019 179.791 311.335 179.791C310.652 179.791 310.098 180.345 310.098 181.029C310.098 181.712 310.652 182.266 311.335 182.266ZM312.573 176.079C312.573 176.762 312.019 177.316 311.335 177.316C310.652 177.316 310.098 176.762 310.098 176.079C310.098 175.395 310.652 174.841 311.335 174.841C312.019 174.841 312.573 175.395 312.573 176.079ZM308.86 179.791C309.543 179.791 310.097 179.237 310.097 178.554C310.097 177.87 309.543 177.316 308.86 177.316C308.176 177.316 307.622 177.87 307.622 178.554C307.622 179.237 308.176 179.791 308.86 179.791ZM317.521 181.029C317.521 181.712 316.967 182.266 316.284 182.266C315.6 182.266 315.046 181.712 315.046 181.029C315.046 180.345 315.6 179.791 316.284 179.791C316.967 179.791 317.521 180.345 317.521 181.029ZM284.111 197.116C284.795 197.116 285.349 196.562 285.349 195.878C285.349 195.195 284.795 194.641 284.111 194.641C283.428 194.641 282.874 195.195 282.874 195.878C282.874 196.562 283.428 197.116 284.111 197.116ZM282.873 208.253C282.873 208.936 282.319 209.49 281.635 209.49C280.952 209.49 280.398 208.936 280.398 208.253C280.398 207.569 280.952 207.015 281.635 207.015C282.319 207.015 282.873 207.569 282.873 208.253ZM281.635 194.641C282.319 194.641 282.873 194.087 282.873 193.403C282.873 192.72 282.319 192.166 281.635 192.166C280.952 192.166 280.398 192.72 280.398 193.403C280.398 194.087 280.952 194.641 281.635 194.641ZM280.399 195.878C280.399 196.562 279.845 197.116 279.161 197.116C278.478 197.116 277.924 196.562 277.924 195.878C277.924 195.195 278.478 194.641 279.161 194.641C279.845 194.641 280.399 195.195 280.399 195.878ZM279.161 174.841C279.845 174.841 280.399 174.287 280.399 173.604C280.399 172.921 279.845 172.366 279.161 172.366C278.478 172.366 277.924 172.921 277.924 173.604C277.924 174.287 278.478 174.841 279.161 174.841ZM282.873 176.079C282.873 176.762 282.319 177.316 281.635 177.316C280.952 177.316 280.398 176.762 280.398 176.079C280.398 175.395 280.952 174.841 281.635 174.841C282.319 174.841 282.873 175.395 282.873 176.079ZM284.111 179.791C284.795 179.791 285.349 179.237 285.349 178.554C285.349 177.87 284.795 177.316 284.111 177.316C283.428 177.316 282.874 177.87 282.874 178.554C282.874 179.237 283.428 179.791 284.111 179.791ZM282.873 181.029C282.873 181.712 282.319 182.266 281.635 182.266C280.952 182.266 280.398 181.712 280.398 181.029C280.398 180.345 280.952 179.791 281.635 179.791C282.319 179.791 282.873 180.345 282.873 181.029ZM279.161 179.791C279.845 179.791 280.399 179.237 280.399 178.554C280.399 177.87 279.845 177.316 279.161 177.316C278.478 177.316 277.924 177.87 277.924 178.554C277.924 179.237 278.478 179.791 279.161 179.791ZM277.923 181.029C277.923 181.712 277.369 182.266 276.686 182.266C276.002 182.266 275.448 181.712 275.448 181.029C275.448 180.345 276.002 179.791 276.686 179.791C277.369 179.791 277.923 180.345 277.923 181.029ZM279.161 184.741C279.845 184.741 280.399 184.187 280.399 183.504C280.399 182.82 279.845 182.266 279.161 182.266C278.478 182.266 277.924 182.82 277.924 183.504C277.924 184.187 278.478 184.741 279.161 184.741ZM277.923 176.079C277.923 176.762 277.369 177.316 276.686 177.316C276.002 177.316 275.448 176.762 275.448 176.079C275.448 175.395 276.002 174.841 276.686 174.841C277.369 174.841 277.923 175.395 277.923 176.079ZM274.21 174.841C274.894 174.841 275.448 174.287 275.448 173.604C275.448 172.921 274.894 172.366 274.21 172.366C273.527 172.366 272.973 172.921 272.973 173.604C272.973 174.287 273.527 174.841 274.21 174.841ZM275.448 178.554C275.448 179.237 274.894 179.791 274.21 179.791C273.527 179.791 272.973 179.237 272.973 178.554C272.973 177.87 273.527 177.316 274.21 177.316C274.894 177.316 275.448 177.87 275.448 178.554ZM281.635 167.416C282.319 167.416 282.873 166.862 282.873 166.179C282.873 165.495 282.319 164.941 281.635 164.941C280.952 164.941 280.398 165.495 280.398 166.179C280.398 166.862 280.952 167.416 281.635 167.416ZM255.649 185.979C255.649 186.662 255.095 187.216 254.411 187.216C253.728 187.216 253.174 186.662 253.174 185.979C253.174 185.295 253.728 184.741 254.411 184.741C255.095 184.741 255.649 185.295 255.649 185.979ZM276.686 172.366C277.369 172.366 277.923 171.812 277.923 171.129C277.923 170.445 277.369 169.891 276.686 169.891C276.002 169.891 275.448 170.445 275.448 171.129C275.448 171.812 276.002 172.366 276.686 172.366ZM287.823 161.229C287.823 161.912 287.269 162.466 286.585 162.466C285.902 162.466 285.348 161.912 285.348 161.229C285.348 160.546 285.902 159.991 286.585 159.991C287.269 159.991 287.823 160.546 287.823 161.229ZM256.886 157.517C257.569 157.517 258.123 156.963 258.123 156.279C258.123 155.596 257.569 155.042 256.886 155.042C256.202 155.042 255.648 155.596 255.648 156.279C255.648 156.963 256.202 157.517 256.886 157.517ZM260.599 158.754C260.599 159.438 260.045 159.992 259.362 159.992C258.678 159.992 258.124 159.438 258.124 158.754C258.124 158.071 258.678 157.517 259.362 157.517C260.045 157.517 260.599 158.071 260.599 158.754ZM261.836 162.466C262.52 162.466 263.074 161.912 263.074 161.229C263.074 160.546 262.52 159.991 261.836 159.991C261.153 159.991 260.599 160.546 260.599 161.229C260.599 161.912 261.153 162.466 261.836 162.466ZM268.023 161.229C268.023 161.912 267.469 162.466 266.786 162.466C266.102 162.466 265.548 161.912 265.548 161.229C265.548 160.546 266.102 159.991 266.786 159.991C267.469 159.991 268.023 160.546 268.023 161.229ZM269.261 164.941C269.944 164.941 270.498 164.387 270.498 163.704C270.498 163.021 269.944 162.467 269.261 162.467C268.577 162.467 268.023 163.021 268.023 163.704C268.023 164.387 268.577 164.941 269.261 164.941ZM268.023 166.179C268.023 166.862 267.469 167.416 266.786 167.416C266.102 167.416 265.548 166.862 265.548 166.179C265.548 165.495 266.102 164.941 266.786 164.941C267.469 164.941 268.023 165.495 268.023 166.179ZM274.21 164.941C274.894 164.941 275.448 164.387 275.448 163.704C275.448 163.021 274.894 162.467 274.21 162.467C273.527 162.467 272.973 163.021 272.973 163.704C272.973 164.387 273.527 164.941 274.21 164.941ZM272.974 166.179C272.974 166.862 272.42 167.416 271.736 167.416C271.053 167.416 270.499 166.862 270.499 166.179C270.499 165.495 271.053 164.941 271.736 164.941C272.42 164.941 272.974 165.495 272.974 166.179ZM269.261 159.992C269.944 159.992 270.498 159.438 270.498 158.754C270.498 158.071 269.944 157.517 269.261 157.517C268.577 157.517 268.023 158.071 268.023 158.754C268.023 159.438 268.577 159.992 269.261 159.992ZM272.974 156.279C272.974 156.963 272.42 157.517 271.736 157.517C271.053 157.517 270.499 156.963 270.499 156.279C270.499 155.596 271.053 155.042 271.736 155.042C272.42 155.042 272.974 155.596 272.974 156.279ZM270.498 153.805C270.498 154.488 269.944 155.042 269.261 155.042C268.577 155.042 268.023 154.488 268.023 153.805C268.023 153.121 268.577 152.567 269.261 152.567C269.944 152.567 270.498 153.121 270.498 153.805ZM281.635 155.042C282.319 155.042 282.873 154.488 282.873 153.805C282.873 153.121 282.319 152.567 281.635 152.567C280.952 152.567 280.398 153.121 280.398 153.805C280.398 154.488 280.952 155.042 281.635 155.042ZM292.773 166.179C292.773 166.862 292.219 167.416 291.535 167.416C290.852 167.416 290.298 166.862 290.298 166.179C290.298 165.495 290.852 164.941 291.535 164.941C292.219 164.941 292.773 165.495 292.773 166.179ZM306.384 164.941C307.067 164.941 307.621 164.387 307.621 163.704C307.621 163.021 307.067 162.467 306.384 162.467C305.7 162.467 305.146 163.021 305.146 163.704C305.146 164.387 305.7 164.941 306.384 164.941ZM305.147 166.179C305.147 166.862 304.593 167.416 303.91 167.416C303.226 167.416 302.672 166.862 302.672 166.179C302.672 165.495 303.226 164.941 303.91 164.941C304.593 164.941 305.147 165.495 305.147 166.179ZM306.384 169.891C307.067 169.891 307.621 169.337 307.621 168.654C307.621 167.97 307.067 167.416 306.384 167.416C305.7 167.416 305.146 167.97 305.146 168.654C305.146 169.337 305.7 169.891 306.384 169.891ZM305.147 171.129C305.147 171.812 304.593 172.366 303.91 172.366C303.226 172.366 302.672 171.812 302.672 171.129C302.672 170.445 303.226 169.891 303.91 169.891C304.593 169.891 305.147 170.445 305.147 171.129ZM308.86 167.416C309.543 167.416 310.097 166.862 310.097 166.179C310.097 165.495 309.543 164.941 308.86 164.941C308.176 164.941 307.622 165.495 307.622 166.179C307.622 166.862 308.176 167.416 308.86 167.416ZM312.573 163.704C312.573 164.387 312.019 164.941 311.335 164.941C310.652 164.941 310.098 164.387 310.098 163.704C310.098 163.021 310.652 162.467 311.335 162.467C312.019 162.467 312.573 163.021 312.573 163.704ZM303.91 162.466C304.593 162.466 305.147 161.912 305.147 161.229C305.147 160.546 304.593 159.991 303.91 159.991C303.226 159.991 302.672 160.546 302.672 161.229C302.672 161.912 303.226 162.466 303.91 162.466ZM305.147 156.279C305.147 156.963 304.593 157.517 303.91 157.517C303.226 157.517 302.672 156.963 302.672 156.279C302.672 155.596 303.226 155.042 303.91 155.042C304.593 155.042 305.147 155.596 305.147 156.279ZM306.384 159.992C307.067 159.992 307.621 159.438 307.621 158.754C307.621 158.071 307.067 157.517 306.384 157.517C305.7 157.517 305.146 158.071 305.146 158.754C305.146 159.438 305.7 159.992 306.384 159.992ZM310.097 161.229C310.097 161.912 309.543 162.466 308.86 162.466C308.176 162.466 307.622 161.912 307.622 161.229C307.622 160.546 308.176 159.991 308.86 159.991C309.543 159.991 310.097 160.546 310.097 161.229ZM311.335 159.992C312.019 159.992 312.573 159.438 312.573 158.754C312.573 158.071 312.019 157.517 311.335 157.517C310.652 157.517 310.098 158.071 310.098 158.754C310.098 159.438 310.652 159.992 311.335 159.992ZM310.097 156.279C310.097 156.963 309.543 157.517 308.86 157.517C308.176 157.517 307.622 156.963 307.622 156.279C307.622 155.596 308.176 155.042 308.86 155.042C309.543 155.042 310.097 155.596 310.097 156.279ZM306.384 155.042C307.067 155.042 307.621 154.488 307.621 153.805C307.621 153.121 307.067 152.567 306.384 152.567C305.7 152.567 305.146 153.121 305.146 153.805C305.146 154.488 305.7 155.042 306.384 155.042ZM312.573 153.805C312.573 154.488 312.019 155.042 311.335 155.042C310.652 155.042 310.098 154.488 310.098 153.805C310.098 153.121 310.652 152.567 311.335 152.567C312.019 152.567 312.573 153.121 312.573 153.805ZM308.86 152.567C309.543 152.567 310.097 152.013 310.097 151.33C310.097 150.646 309.543 150.092 308.86 150.092C308.176 150.092 307.622 150.646 307.622 151.33C307.622 152.013 308.176 152.567 308.86 152.567ZM307.621 148.855C307.621 149.538 307.067 150.092 306.384 150.092C305.7 150.092 305.146 149.538 305.146 148.855C305.146 148.171 305.7 147.617 306.384 147.617C307.067 147.617 307.621 148.171 307.621 148.855ZM311.335 150.092C312.019 150.092 312.573 149.538 312.573 148.855C312.573 148.171 312.019 147.617 311.335 147.617C310.652 147.617 310.098 148.171 310.098 148.855C310.098 149.538 310.652 150.092 311.335 150.092ZM315.047 146.38C315.047 147.063 314.493 147.617 313.809 147.617C313.126 147.617 312.572 147.063 312.572 146.38C312.572 145.696 313.126 145.142 313.809 145.142C314.493 145.142 315.047 145.696 315.047 146.38ZM311.335 145.142C312.019 145.142 312.573 144.588 312.573 143.905C312.573 143.221 312.019 142.667 311.335 142.667C310.652 142.667 310.098 143.221 310.098 143.905C310.098 144.588 310.652 145.142 311.335 145.142ZM310.097 141.43C310.097 142.114 309.543 142.668 308.86 142.668C308.176 142.668 307.622 142.114 307.622 141.43C307.622 140.747 308.176 140.193 308.86 140.193C309.543 140.193 310.097 140.747 310.097 141.43ZM313.809 142.668C314.493 142.668 315.047 142.114 315.047 141.43C315.047 140.747 314.493 140.193 313.809 140.193C313.126 140.193 312.572 140.747 312.572 141.43C312.572 142.114 313.126 142.668 313.809 142.668ZM317.521 138.955C317.521 139.638 316.967 140.192 316.284 140.192C315.6 140.192 315.046 139.638 315.046 138.955C315.046 138.271 315.6 137.717 316.284 137.717C316.967 137.717 317.521 138.271 317.521 138.955ZM313.809 137.717C314.493 137.717 315.047 137.163 315.047 136.48C315.047 135.796 314.493 135.242 313.809 135.242C313.126 135.242 312.572 135.796 312.572 136.48C312.572 137.163 313.126 137.717 313.809 137.717ZM287.823 171.129C287.823 171.812 287.269 172.366 286.585 172.366C285.902 172.366 285.348 171.812 285.348 171.129C285.348 170.445 285.902 169.891 286.585 169.891C287.269 169.891 287.823 170.445 287.823 171.129ZM284.111 164.941C284.795 164.941 285.349 164.387 285.349 163.704C285.349 163.021 284.795 162.467 284.111 162.467C283.428 162.467 282.874 163.021 282.874 163.704C282.874 164.387 283.428 164.941 284.111 164.941ZM258.123 183.504C258.123 184.187 257.569 184.741 256.886 184.741C256.202 184.741 255.648 184.187 255.648 183.504C255.648 182.82 256.202 182.266 256.886 182.266C257.569 182.266 258.123 182.82 258.123 183.504ZM259.362 182.266C260.045 182.266 260.599 181.712 260.599 181.029C260.599 180.345 260.045 179.791 259.362 179.791C258.678 179.791 258.124 180.345 258.124 181.029C258.124 181.712 258.678 182.266 259.362 182.266ZM280.399 168.654C280.399 169.337 279.845 169.891 279.161 169.891C278.478 169.891 277.924 169.337 277.924 168.654C277.924 167.97 278.478 167.416 279.161 167.416C279.845 167.416 280.399 167.97 280.399 168.654ZM251.937 189.691C252.62 189.691 253.174 189.137 253.174 188.453C253.174 187.77 252.62 187.216 251.937 187.216C251.253 187.216 250.699 187.77 250.699 188.453C250.699 189.137 251.253 189.691 251.937 189.691ZM290.297 158.754C290.297 159.438 289.743 159.992 289.06 159.992C288.376 159.992 287.822 159.438 287.822 158.754C287.822 158.071 288.376 157.517 289.06 157.517C289.743 157.517 290.297 158.071 290.297 158.754ZM254.411 159.992C255.095 159.992 255.649 159.438 255.649 158.754C255.649 158.071 255.095 157.517 254.411 157.517C253.728 157.517 253.174 158.071 253.174 158.754C253.174 159.438 253.728 159.992 254.411 159.992ZM280.399 148.855C280.399 149.538 279.845 150.092 279.161 150.092C278.478 150.092 277.924 149.538 277.924 148.855C277.924 148.171 278.478 147.617 279.161 147.617C279.845 147.617 280.399 148.171 280.399 148.855ZM284.111 152.567C284.795 152.567 285.349 152.013 285.349 151.33C285.349 150.646 284.795 150.092 284.111 150.092C283.428 150.092 282.874 150.646 282.874 151.33C282.874 152.013 283.428 152.567 284.111 152.567ZM290.297 163.704C290.297 164.387 289.743 164.941 289.06 164.941C288.376 164.941 287.822 164.387 287.822 163.704C287.822 163.021 288.376 162.467 289.06 162.467C289.743 162.467 290.297 163.021 290.297 163.704ZM284.111 169.891C284.795 169.891 285.349 169.337 285.349 168.654C285.349 167.97 284.795 167.416 284.111 167.416C283.428 167.416 282.874 167.97 282.874 168.654C282.874 169.337 283.428 169.891 284.111 169.891ZM258.123 188.453C258.123 189.137 257.569 189.691 256.886 189.691C256.202 189.691 255.648 189.137 255.648 188.453C255.648 187.77 256.202 187.216 256.886 187.216C257.569 187.216 258.123 187.77 258.123 188.453ZM281.635 162.466C282.319 162.466 282.873 161.912 282.873 161.229C282.873 160.546 282.319 159.991 281.635 159.991C280.952 159.991 280.398 160.546 280.398 161.229C280.398 161.912 280.952 162.466 281.635 162.466ZM272.974 161.229C272.974 161.912 272.42 162.466 271.736 162.466C271.053 162.466 270.499 161.912 270.499 161.229C270.499 160.546 271.053 159.991 271.736 159.991C272.42 159.991 272.974 160.546 272.974 161.229ZM279.161 159.992C279.845 159.992 280.399 159.438 280.399 158.754C280.399 158.071 279.845 157.517 279.161 157.517C278.478 157.517 277.924 158.071 277.924 158.754C277.924 159.438 278.478 159.992 279.161 159.992ZM277.923 166.179C277.923 166.862 277.369 167.416 276.686 167.416C276.002 167.416 275.448 166.862 275.448 166.179C275.448 165.495 276.002 164.941 276.686 164.941C277.369 164.941 277.923 165.495 277.923 166.179ZM249.461 187.216C250.144 187.216 250.698 186.662 250.698 185.979C250.698 185.295 250.144 184.741 249.461 184.741C248.778 184.741 248.224 185.295 248.224 185.979C248.224 186.662 248.778 187.216 249.461 187.216ZM248.225 188.453C248.225 189.137 247.671 189.691 246.987 189.691C246.304 189.691 245.75 189.137 245.75 188.453C245.75 187.77 246.304 187.216 246.987 187.216C247.671 187.216 248.225 187.77 248.225 188.453ZM244.511 192.165C245.195 192.165 245.749 191.611 245.749 190.928C245.749 190.244 245.195 189.69 244.511 189.69C243.828 189.69 243.274 190.244 243.274 190.928C243.274 191.611 243.828 192.165 244.511 192.165ZM243.274 188.453C243.274 189.137 242.72 189.691 242.037 189.691C241.353 189.691 240.799 189.137 240.799 188.453C240.799 187.77 241.353 187.216 242.037 187.216C242.72 187.216 243.274 187.77 243.274 188.453ZM239.562 192.165C240.245 192.165 240.799 191.611 240.799 190.928C240.799 190.244 240.245 189.69 239.562 189.69C238.878 189.69 238.324 190.244 238.324 190.928C238.324 191.611 238.878 192.165 239.562 192.165ZM238.324 188.453C238.324 189.137 237.77 189.691 237.087 189.691C236.404 189.691 235.85 189.137 235.85 188.453C235.85 187.77 236.404 187.216 237.087 187.216C237.77 187.216 238.324 187.77 238.324 188.453ZM234.612 192.165C235.295 192.165 235.849 191.611 235.849 190.928C235.849 190.244 235.295 189.69 234.612 189.69C233.928 189.69 233.374 190.244 233.374 190.928C233.374 191.611 233.928 192.165 234.612 192.165ZM287.823 156.279C287.823 156.963 287.269 157.517 286.585 157.517C285.902 157.517 285.348 156.963 285.348 156.279C285.348 155.596 285.902 155.042 286.585 155.042C287.269 155.042 287.823 155.596 287.823 156.279ZM289.06 155.042C289.743 155.042 290.297 154.488 290.297 153.805C290.297 153.121 289.743 152.567 289.06 152.567C288.376 152.567 287.822 153.121 287.822 153.805C287.822 154.488 288.376 155.042 289.06 155.042ZM292.773 151.33C292.773 152.013 292.219 152.567 291.535 152.567C290.852 152.567 290.298 152.013 290.298 151.33C290.298 150.646 290.852 150.092 291.535 150.092C292.219 150.092 292.773 150.646 292.773 151.33ZM289.06 150.092C289.743 150.092 290.297 149.538 290.297 148.855C290.297 148.171 289.743 147.617 289.06 147.617C288.376 147.617 287.822 148.171 287.822 148.855C287.822 149.538 288.376 150.092 289.06 150.092ZM287.823 146.38C287.823 147.063 287.269 147.617 286.585 147.617C285.902 147.617 285.348 147.063 285.348 146.38C285.348 145.696 285.902 145.142 286.585 145.142C287.269 145.142 287.823 145.696 287.823 146.38ZM284.111 145.142C284.795 145.142 285.349 144.588 285.349 143.905C285.349 143.221 284.795 142.667 284.111 142.667C283.428 142.667 282.874 143.221 282.874 143.905C282.874 144.588 283.428 145.142 284.111 145.142ZM287.823 141.43C287.823 142.114 287.269 142.668 286.585 142.668C285.902 142.668 285.348 142.114 285.348 141.43C285.348 140.747 285.902 140.193 286.585 140.193C287.269 140.193 287.823 140.747 287.823 141.43ZM289.06 140.192C289.743 140.192 290.297 139.638 290.297 138.955C290.297 138.271 289.743 137.717 289.06 137.717C288.376 137.717 287.822 138.271 287.822 138.955C287.822 139.638 288.376 140.192 289.06 140.192ZM287.823 136.48C287.823 137.163 287.269 137.717 286.585 137.717C285.902 137.717 285.348 137.163 285.348 136.48C285.348 135.796 285.902 135.242 286.585 135.242C287.269 135.242 287.823 135.796 287.823 136.48ZM284.111 135.243C284.795 135.243 285.349 134.688 285.349 134.005C285.349 133.322 284.795 132.768 284.111 132.768C283.428 132.768 282.874 133.322 282.874 134.005C282.874 134.688 283.428 135.243 284.111 135.243ZM287.823 131.53C287.823 132.214 287.269 132.768 286.585 132.768C285.902 132.768 285.348 132.214 285.348 131.53C285.348 130.847 285.902 130.293 286.585 130.293C287.269 130.293 287.823 130.847 287.823 131.53ZM289.06 145.142C289.743 145.142 290.297 144.588 290.297 143.905C290.297 143.221 289.743 142.667 289.06 142.667C288.376 142.667 287.822 143.221 287.822 143.905C287.822 144.588 288.376 145.142 289.06 145.142ZM292.773 146.38C292.773 147.063 292.219 147.617 291.535 147.617C290.852 147.617 290.298 147.063 290.298 146.38C290.298 145.696 290.852 145.142 291.535 145.142C292.219 145.142 292.773 145.696 292.773 146.38ZM291.535 157.517C292.219 157.517 292.773 156.963 292.773 156.279C292.773 155.596 292.219 155.042 291.535 155.042C290.852 155.042 290.298 155.596 290.298 156.279C290.298 156.963 290.852 157.517 291.535 157.517ZM295.247 158.754C295.247 159.438 294.693 159.992 294.009 159.992C293.326 159.992 292.772 159.438 292.772 158.754C292.772 158.071 293.326 157.517 294.009 157.517C294.693 157.517 295.247 158.071 295.247 158.754ZM291.535 162.466C292.219 162.466 292.773 161.912 292.773 161.229C292.773 160.546 292.219 159.991 291.535 159.991C290.852 159.991 290.298 160.546 290.298 161.229C290.298 161.912 290.852 162.466 291.535 162.466ZM250.698 156.279C250.698 156.963 250.144 157.517 249.461 157.517C248.778 157.517 248.224 156.963 248.224 156.279C248.224 155.596 248.778 155.042 249.461 155.042C250.144 155.042 250.698 155.596 250.698 156.279ZM291.535 172.366C292.219 172.366 292.773 171.812 292.773 171.129C292.773 170.445 292.219 169.891 291.535 169.891C290.852 169.891 290.298 170.445 290.298 171.129C290.298 171.812 290.852 172.366 291.535 172.366ZM295.247 173.604C295.247 174.287 294.693 174.841 294.009 174.841C293.326 174.841 292.772 174.287 292.772 173.604C292.772 172.921 293.326 172.366 294.009 172.366C294.693 172.366 295.247 172.921 295.247 173.604ZM291.535 177.316C292.219 177.316 292.773 176.762 292.773 176.079C292.773 175.395 292.219 174.841 291.535 174.841C290.852 174.841 290.298 175.395 290.298 176.079C290.298 176.762 290.852 177.316 291.535 177.316Z" fill="black"/>
<path fill-rule="evenodd" clip-rule="evenodd" d="M180.8 269.15C188.068 267.97 195.336 266.404 202.556 264.439L164.003 188.994C162.141 188.965 159.445 189.762 156.141 190.74C143.409 194.508 121.634 200.953 103.603 173.072C86.0755 145.971 103.027 108.199 118.648 78.0391C102.28 98.6142 92.5 124.665 92.5 153C92.5 158.882 92.9214 164.665 93.7357 170.322C98.1871 173.267 101.31 177.136 103.477 179.822C104.875 181.553 105.875 182.793 106.579 182.976C102.704 182.644 99.1758 181.934 95.8228 181.221C98.9778 194.369 104.288 206.678 111.36 217.754C112.885 217.018 114.619 216.533 116.597 216.38C127.787 215.516 133.988 223.2 137.345 227.358C138.469 228.752 139.275 229.749 139.841 229.897C136.413 229.603 133.322 228.941 130.385 228.313C126.087 227.394 122.119 226.545 117.909 227.022C119.855 229.518 121.897 231.936 124.03 234.27C124.305 234.407 124.575 234.561 124.84 234.732C129.009 237.429 132.104 241.066 134.289 244.243C147.577 255.716 163.398 264.336 180.8 269.15ZM112.693 234.914C108.597 236.589 104.765 239.218 102.381 240.974C108.45 239.899 113.824 240.363 118.522 241.568C130.319 254.146 144.598 264.368 160.578 271.451C139.941 272.804 119.67 271.105 100.879 266.645C100.861 259.354 101.163 253.001 101.395 248.125L101.396 248.111L101.436 247.256C101.452 246.92 101.468 246.591 101.483 246.27L98.3084 247.403C97.4982 251.878 96.6173 258.096 95.849 265.376C90.8127 264.029 85.8931 262.479 81.1127 260.733C83.2319 254.67 86.9982 248.154 95.341 243.486C89.3557 243.789 76.5099 245.077 74.0035 252.87C73.4962 254.447 73.2361 256.033 73.157 257.591C71.402 256.844 69.669 256.068 67.9592 255.265C69.6208 252.573 71.8955 249.896 75.1765 247.587C72.2912 248.109 66.4863 249.456 63.6488 253.158C62.1063 252.373 60.5846 251.565 59.0845 250.734L59.0571 250.411C67.5725 244.166 78.8094 237.693 93.8581 239.056C87.7176 234.844 73.9242 226.516 63.971 233.283C61.8444 234.729 59.9772 236.395 58.3359 238.174C58.1534 232.989 58.1286 228.069 58.1891 223.513C73.362 221.59 84.8335 226.211 93.9892 235.933C93.2441 231.548 83.9754 216.988 76.6459 216.745C69.466 216.507 62.5432 220.618 59.1941 222.606C58.8126 222.833 58.4774 223.031 58.1935 223.193C58.29 216.405 58.5736 210.437 58.8023 205.627L58.8023 205.627C58.8403 204.826 58.8769 204.057 58.9108 203.322L54.9666 204.729C53.3275 213.783 51.4557 228.577 50.3336 245.461C43.3167 240.868 36.8843 235.716 31.156 230.037C33.3655 220.745 36.6905 208.031 51.2825 199.866C43.8452 200.242 27.883 201.844 24.7686 211.527C23.6186 215.102 23.4909 218.715 23.8857 222.082C21.6813 219.412 19.6199 216.644 17.7115 213.782C19.7321 210.68 22.4398 207.622 26.2257 204.957C23.4604 205.457 18.5369 206.568 14.8116 209.16C13.8851 207.587 13.0033 205.988 12.1676 204.362C21.8918 198.159 34.0653 192.968 49.4412 194.361C41.811 189.127 24.6714 178.778 12.3036 187.187C10.2862 188.559 8.45669 190.091 6.79649 191.722C-2.93916 163.131 0.583915 127.909 23.7668 87.7389C50.33 44.5941 93.0501 30.3915 117.921 29.3118C117.347 32.3476 116.16 35.9767 112.718 39.606C111.979 35.598 110.409 37.6039 107.772 40.9708C105.723 43.5876 103.031 47.0264 99.5844 49.1029C99.5844 43.1674 94.3308 39.6056 93.0174 46.7287C91.7039 53.8518 83.8235 62.4419 83.8235 59.7873C83.8235 59.02 83.8845 58.2527 83.9407 57.5447C84.1456 54.9669 84.2879 53.176 81.1967 55.0387C78.8548 56.4499 76.5129 60.3774 75.274 62.8329C76.551 58.5062 77.7868 48.7491 73.3162 46.7287C68.0626 44.3543 68.0626 52.6645 69.376 58.6003C70.4267 63.3489 66.3114 70.8678 64.1224 74.0337C64.998 72.4508 66.2238 68.8101 64.1224 66.9103C62.5029 65.4462 61.8818 69.8485 61.3359 73.7184C60.9963 76.1255 60.6858 78.3266 60.1821 78.7819C59.3704 79.5156 59.0603 77.5287 58.6319 74.7828C58.367 73.0857 58.057 71.0988 57.5553 69.285C56.2419 64.5364 50.9883 70.4722 53.6151 74.0337C56.2419 77.5952 53.6151 83.531 50.9883 85.9053C49.7685 87.0078 48.832 89.1342 47.9156 91.2148C46.8585 93.6148 45.8283 95.9539 44.4212 96.5898C43.1079 97.1833 43.1078 99.5575 43.1078 101.783C43.1078 104.009 43.1077 106.087 41.7941 106.087C40.8634 106.087 40.0977 105.64 39.38 105.221C38.0718 104.457 36.9233 103.787 35.2271 106.087C33.1256 108.936 38.7295 129.183 41.7941 134.723C45.5513 141.515 47.9266 145 49.3638 146.222C52.4868 151.164 56.3943 154.695 60.8157 156.951C67.6556 160.442 75.6248 160.828 83.6272 158.792C83.7407 161.371 83.9296 163.93 84.1919 166.468C82.1933 166.12 80.0324 166.001 77.6966 166.181C63.4003 167.285 59.3846 182.34 56.9095 191.619L56.9083 191.624C56.8127 191.982 56.7194 192.332 56.6279 192.672C68.8071 180.301 77.4829 178.488 86.2044 179.455C86.9101 182.855 87.749 186.205 88.7155 189.501C88.46 189.326 88.2011 189.153 87.9388 188.984C79.3984 183.459 66.0278 192.324 60.0318 196.74C74.1329 194.242 85.2144 198.43 93.4324 202.826C96.5434 210.282 100.332 217.386 104.72 224.06C102.189 228.151 100.872 233.091 99.8685 236.852L99.8681 236.853C99.791 237.142 99.7157 237.425 99.6419 237.699C103.051 234.236 106.119 231.802 108.966 230.131C110.172 231.755 111.415 233.35 112.693 234.914ZM83.5687 157.258C83.523 155.844 83.5 154.425 83.5 153C83.5 112.062 102.496 75.5608 132.154 51.8298C134.173 47.5588 135.76 43.7402 136.696 40.4859C129.819 42.0699 124.782 44.7937 125.853 46.7287C127.166 49.1029 119.286 51.4773 112.718 51.4773C106.151 51.4773 100.898 56.226 104.838 57.4131C108.778 58.6003 94.3308 62.1619 89.0771 63.3489C83.8235 64.536 78.5699 69.2845 83.8235 71.6591C86.4899 72.8643 84.0815 73.4576 80.3759 74.3706C76.7803 75.2565 71.9632 76.4433 69.376 78.7819C64.1224 83.5307 65.4358 87.0922 69.376 89.4665C71.8777 90.974 66.967 92.9601 62.3756 94.817L62.3755 94.817C59.7354 95.8848 57.2009 96.9098 56.2419 97.7767C53.6151 100.151 50.9883 107.274 53.6151 110.835C56.2419 114.397 54.9285 115.584 49.6749 119.146C48.1214 120.199 49.1517 127.142 50.1396 133.8C50.9349 139.16 51.7026 144.334 51.0726 146.1C53.9899 150.482 57.5485 153.6 61.4975 155.615C68.0282 158.948 75.7304 159.317 83.5687 157.258ZM28.0554 166.634C37.163 166.935 48.6801 185.028 49.6061 190.477C38.0099 178.164 23.424 172.435 4.02539 175.191C4.41067 175.08 5.22104 174.598 6.3698 173.916C10.5313 171.446 19.1336 166.338 28.0554 166.634ZM53.9131 190.058C56.1655 184.69 56.585 167.526 52.8369 160.264C49.0381 152.905 36.0165 150.233 34.2621 149.894C40.0172 154.241 51.1586 173.63 53.9131 190.058ZM97.4586 235.593C99.2713 231.273 99.6088 217.46 96.5925 211.616C93.5353 205.693 83.056 203.543 81.6441 203.27C86.2757 206.769 95.2419 222.372 97.4586 235.593ZM67.7088 113.699L67.7091 113.697L67.7092 113.696C67.7101 113.69 67.7128 113.672 67.7184 113.639C67.763 114.571 67.8518 115.516 68.037 116.295C68.1319 116.695 68.2592 117.082 68.4376 117.413C68.6138 117.739 68.8719 118.069 69.2567 118.261C69.6271 118.447 70.0777 118.297 70.2629 117.926C70.4481 117.556 70.298 117.105 69.9275 116.92C69.9207 116.916 69.8528 116.877 69.7576 116.7C69.6645 116.528 69.5748 116.279 69.4964 115.949C69.3395 115.288 69.2557 114.428 69.2135 113.499C69.1719 112.584 69.1718 111.641 69.1718 110.81V110.788L69.1718 110.754C69.1718 109.956 69.1718 109.218 69.1218 108.768C69.1074 108.638 69.0833 108.485 69.0314 108.345C69.0061 108.276 68.9563 108.161 68.8586 108.05C68.751 107.928 68.5532 107.781 68.2712 107.777C68.0125 107.773 67.8304 107.893 67.743 107.965C67.6519 108.04 67.5907 108.122 67.5545 108.175C67.481 108.283 67.425 108.405 67.3836 108.506C67.2184 108.906 67.0395 109.583 66.8794 110.263C66.5552 111.639 66.2425 113.315 66.2182 113.531C65.4823 120.049 66.7164 127.427 70.7664 132.826C71.0149 133.158 71.485 133.225 71.8164 132.976C72.1477 132.728 72.2149 132.258 71.9664 131.926C68.2086 126.916 67.0024 119.955 67.7087 113.699C67.7087 113.699 67.7087 113.699 67.7088 113.699ZM105.199 79.5018C105.33 79.8947 105.117 80.3195 104.724 80.4505C104.376 80.5667 104.01 80.8499 103.625 81.3451C103.243 81.8371 102.884 82.4842 102.534 83.2379C102.184 83.9889 101.858 84.8132 101.53 85.6522L101.466 85.8152C101.161 86.5928 100.853 87.3807 100.532 88.0934C100.19 88.8516 99.8129 89.5706 99.3772 90.1308C98.9469 90.684 98.3856 91.1767 97.6523 91.303C96.8945 91.4335 96.161 91.1397 95.4732 90.5745C94.7911 90.0141 94.0771 89.128 93.3039 87.8908C93.0424 87.4725 92.8249 87.1749 92.6455 86.9714C92.542 86.854 92.4619 86.7802 92.4046 86.7349L92.395 86.7485C92.2228 86.996 92.0435 87.438 91.8033 88.0981C91.77 88.1896 91.7358 88.2842 91.7008 88.3814C91.498 88.9435 91.2637 89.5928 90.977 90.2318C90.8762 90.4562 90.7629 90.7508 90.6283 91.1005L90.6274 91.1028C90.5533 91.2954 90.4727 91.5047 90.3843 91.7281C90.1472 92.3272 89.8635 93.0005 89.5447 93.5497C89.3854 93.8243 89.2021 94.0947 88.9924 94.316C88.7896 94.53 88.5055 94.7583 88.1361 94.8401C87.7233 94.9315 87.3328 94.813 87.0157 94.5628C86.7254 94.3337 86.4962 93.9975 86.3033 93.6116C86.2373 93.4797 86.1539 93.3005 86.0553 93.0886L86.055 93.0881C85.7813 92.5001 85.3902 91.6599 84.9274 90.8741C84.6149 90.3434 84.3037 89.9 84.0217 89.6193C83.8545 89.4529 83.7549 89.398 83.7114 89.3799C83.6656 89.4186 83.5462 89.5422 83.4004 89.8955C83.224 90.3232 83.0844 90.9054 82.9758 91.5516C82.8686 92.1897 82.7976 92.8522 82.7454 93.4245C82.7269 93.6267 82.7103 93.8249 82.6949 94.0076L82.6948 94.0086C82.6687 94.3196 82.6463 94.586 82.6251 94.7516C81.5714 102.971 80.0413 111.667 74.9284 118.626C74.6832 118.96 74.2138 119.032 73.8799 118.787C73.5461 118.541 73.4743 118.072 73.7196 117.738C78.5799 111.123 80.0829 102.785 81.1373 94.5608C81.1548 94.4246 81.1721 94.2169 81.195 93.9425C81.2107 93.7551 81.2289 93.5364 81.2516 93.2881C81.3051 92.7019 81.3801 91.9961 81.4966 91.303C81.6117 90.618 81.7735 89.906 82.0138 89.3235C82.2319 88.7948 82.6144 88.1232 83.318 87.9222C84.0723 87.7067 84.7049 88.1829 85.08 88.5563C85.4988 88.9732 85.8871 89.5479 86.2199 90.1129C86.7261 90.9723 87.1832 91.9549 87.4534 92.5357C87.536 92.7133 87.6012 92.8533 87.6449 92.9408C87.7399 93.1307 87.8189 93.2462 87.8748 93.3135L87.8896 93.2988L87.9036 93.2842C88.0021 93.1803 88.1183 93.0192 88.2474 92.7968C88.5056 92.3519 88.755 91.7689 88.9895 91.1763C89.0622 90.9926 89.1349 90.8037 89.2061 90.6191C89.3522 90.2397 89.4914 89.8784 89.6084 89.6177C89.8699 89.035 90.0827 88.4456 90.2862 87.882L90.2862 87.8819L90.2883 87.8764C90.3236 87.7784 90.3587 87.6813 90.3937 87.5851C90.6164 86.9734 90.8583 86.3309 91.1635 85.892C91.3201 85.6669 91.5465 85.4147 91.8728 85.277C92.2361 85.1236 92.6113 85.1577 92.9456 85.3136C93.2514 85.4563 93.5232 85.6987 93.7707 85.9794C94.0243 86.2671 94.2906 86.6393 94.5759 87.0958C95.3131 88.2754 95.9256 89.0049 96.4255 89.4156C96.9196 89.8217 97.2234 89.8548 97.3977 89.8248C97.5966 89.7905 97.8623 89.6353 98.1932 89.2099C98.5186 88.7915 98.8373 88.2014 99.1642 87.4767C99.4694 86.8001 99.7645 86.0461 100.073 85.2582L100.133 85.1051C100.46 84.2707 100.802 83.4048 101.173 82.6056C101.544 81.8092 101.958 81.0461 102.44 80.4249C102.921 79.8068 103.511 79.2738 104.25 79.0275C104.643 78.8965 105.068 79.1088 105.199 79.5018ZM76.2308 95.3137C76.3398 94.9141 76.1042 94.5018 75.7046 94.3928C75.3049 94.2838 74.8926 94.5194 74.7836 94.9191C73.9153 98.1029 72.9658 101.23 71.8449 104.324C71.7038 104.713 71.9051 105.143 72.2946 105.284C72.684 105.426 73.1141 105.224 73.2552 104.835C74.3938 101.692 75.3552 98.5242 76.2308 95.3137ZM88.7002 101.486C89.1021 101.586 89.3464 101.993 89.2459 102.395C89.2055 102.557 89.1654 102.718 89.1257 102.878L89.02 103.304C88.2817 106.282 87.6022 109.023 86.243 111.989C86.0704 112.365 85.6252 112.531 85.2487 112.358C84.8721 112.185 84.7068 111.74 84.8794 111.364C86.1773 108.532 86.8242 105.924 87.5671 102.93L87.5681 102.926C87.6411 102.632 87.7151 102.334 87.7907 102.031C87.8912 101.63 88.2984 101.385 88.7002 101.486Z" fill="black"/>
</svg>
